<svg height="341.8065" viewBox="0 0 28.458334 33.18234" width="292.56319" xmlns="http://www.w3.org/2000/svg"><g stroke-width=".169333" transform="matrix(.22598501 0 0 .22598501 -6.44141 -27.93191)"><path d="m79.66768 159.72872c-.498434-.22911-.719667-.43549-.719667-.67134 0-.23651.219863-.44034.719667-.66721.923378-.41914 1.501702-.41716 2.33508.008.937481.47827.902766.92507-.105453 1.35725-.944399.40481-1.300144.40055-2.229627-.0267zm20.91266.009c-.921666-.48656-.848106-.90417.254-1.44187l.889-.43373.98288.4522c1.15736.53247 1.19908.81998.20102 1.38523-.82623.46794-1.49212.47887-2.3269.0382z" fill="#01b193"/><path d="m88.937502 160.08007v-2.032h5.08v2.032z" fill="#0e7dc1"/><path d="m77.147737 153.73079c-.194844-.23477-2.375332-5.70948-2.514255-6.31273-.188587-.81888 4.417216-4.30412 7.439765-5.6297 1.777187-.77942 4.468458-1.55058 5.413575-1.55122.428871-.00029.677183.0939.780327.29591.0832.16298.367724 1.6452.632262 3.29383.449773 2.80302.462693 3.0177.199166 3.30889-.258776.28595-.262697.51844-.04795 2.8445.233543 2.52967.233364 2.5335-.132826 2.81991-.403994.31597-1.539787.64453-2.228082.64453-.642948 0-1.280671-.38128-2.070027-1.23763-.736529-.79904-1.233246-1.62447-1.233246-2.04936 0-.1407-.17145-.41575-.381-.61122-.342084-.3191-.381-.51553-.381-1.92311 0-1.45093-.03838-1.62992-.515244-2.40286-.283385-.45933-.619486-.83515-.746892-.83515-.280398 0-.654592.97352-.672315 1.74912-.0071.31008.184186 1.05638.425049 1.65844.408024 1.0199.419716 1.12246.171216 1.50172-.163891.25013-.20216.44695-.09927.51055.646546.39959-.50471 2.08491-2.272106 3.32613-1.243198.87309-1.474841.95167-1.767152.59945zm2.249708-4.41135c.07235-.23218.220691-.29729.562932-.24706l.464696.0682-.368268-1.0943c-.380158-1.12964-.77687-1.52624-1.538693-1.53823-.485478-.008-1.056911.55799-1.063113 1.05233-.0026.20955.223703.8382.50296 1.397.279258.5588.556347 1.2446.615751 1.524l.108009.508.308745-.67734c.169811-.37253.352952-.8192.406981-.9926zm6.616177-.48906c-.0566-.39582-.03444-1.07394.04924-1.50693.288521-1.49289-.49871-2.35348-1.621657-1.77278-.635807.32879-.716093.54522-.716093 1.93042 0 .87165.04516 1.07553.2032.91749.349916-.34992.699782-.22611 1.339866.47413.340529.37253.670716.67733.733748.67733.06303 0 .0683-.32385.0117-.71966zm18.225118 4.43432c-1.19188-.7959-2.36096-2.05297-2.49666-2.68454-.0517-.2406-.17675-.60819-.27791-.81687-.15091-.31132-.10068-.53237.2798-1.23145.61244-1.12526.75142-2.45158.36335-3.46772-.16035-.41987-.34816-.76341-.41736-.76341-.25636 0-.85671.79125-1.21512 1.60151-.31741.71754-.35494 1.02395-.26627 2.17378.0954 1.23664.0777 1.34517-.231454 1.42603-.18699.0489-.33467.23122-.33467.41318 0 .84806-1.398618 2.76136-2.404588 3.28946-.25149.13202-.71417.24004-1.02817.24004-.6773 0-2.06182-.44539-2.30851-.74264-.11962-.14414-.11261-.99347.0224-2.70957.15183-1.93014.15056-2.57339-.006-2.82341-.1112-.17808-.20219-.52838-.20219-.77845 0-.74734.89001-5.7135 1.06493-5.94226.54175-.70844 5.133888.62313 8.160492 2.36627 1.40384.80853 3.16931 2.11836 4.55746 3.38123l.99821.90814-1.23677 3.21268c-.68022 1.76697-1.3102 3.30793-1.39995 3.42434-.2584.33518-.52222.25768-1.62142-.47634zm.9392-4.66382c.41125-.78558.43235-.9133.2311-1.39915-.44922-1.08452-1.89994-.83783-2.22722.37873-.10351.38477-.28676.89036-.40723 1.12352-.2104.40727-.19885.42392.29345.42334.45373-.00051.53623.0791.71971.69467.3507 1.1766.47375 1.24589.71745.40399.12109-.41833.42382-1.14962.67274-1.6251zm-6.711154-.4055c.11971 0 .34008.11078.4897.24619.24739.22389.27378.13179.29126-1.01643.0183-1.2025-.005-1.28277-.48337-1.68553-.594048-.49986-.981818-.53189-1.487008-.12281-.40187.32542-.43442.55897-.37112 2.66324l.0407 1.35467.65107-.71967c.35808-.39581.749-.71966.868718-.71966z" fill="#d21044"/><path d="m72.608932 219.9273c-.2355-.23549-.2661-1.34404-.2661-9.6399 0-10.43084-.0773-9.77735 1.18198-9.9901.50651-.0856.68069-.19476.68069-.42669 0-.50621.47914-.84388 1.19743-.84388.6371 0 .66534-.0233.66783-.55033.001-.30269.0586-.63418.127-.73665.18764-.28102.81797-.57569 1.23147-.57569.20203 0 1.7791-.4651 3.50461-1.03357l3.13728-1.03357 1.88286.0733c2.18974.0853 3.24035.42163 4.63874 1.48507l.89323.67927.84209-.66563c1.31692-1.04097 2.47311-1.4131 4.65279-1.49754l1.86267-.0721 3.132668 1.01287c1.72297.55709 3.41597 1.06276 3.76222 1.12372.81763.14395 1.14845.49259 1.14845 1.2103 0 .56268.0205.58057.66523.58057.71829 0 1.19743.33767 1.19743.84388 0 .23193.17418.34111.68069.42669 1.2593.21275 1.18198-.44074 1.18198 9.9901 0 8.29586-.0306 9.40441-.2661 9.6399-.14635.14635-.38482.2661-.52994.2661-.51288 0-4.08273-.85894-8.34796-2.00861-2.374898-.64013-4.869128-1.26214-5.542718-1.38223l-1.22471-.21835-.35657.45331c-.6217.79036-1.28281 1.02727-2.86667 1.02727-1.58283 0-2.24502-.23696-2.86509-1.02527-.35253-.44815-.36296-.44997-1.49662-.26059-.62789.10488-3.12283.72599-5.54429 1.38022-4.32861 1.16952-7.9132 2.03425-8.43263 2.03425-.14512 0-.38359-.11975-.52994-.2661zm19.50755-4.89537c.0255-.0217-.003-.1687-.0639-.32675-.14728-.38381-1.14228-.3041-1.21831.0976-.0594.31393.37142.48326.89728.35265.18626-.0463.35951-.10184.38498-.12351zm-15.80271-53.83538c-.28402-.12371-.72217-.46947-.97367-.76836-.88283-1.04919-.46439-2.8634.79866-3.46276.51278-.24333 2.12457-.272 15.27966-.27177 16.402008.00034 15.443478-.0685 16.269368 1.16778.74953 1.12198.2993 2.63714-.97366 3.2767-.54776.2752-1.62178.29562-15.236628.2897-11.79546-.005-14.74788-.0502-15.16373-.23129zm17.70373-2.13248v-1.016h-2.54-2.54v1.016 1.016h2.54 2.54zm-12.11186.47425c.42159-.20482.76652-.42039.76652-.47905 0-.0587-.381-.2851-.84666-.5032l-.84667-.39656-.84667.39656c-.46566.2181-.84666.44472-.84666.50358 0 .13159 1.3603.82607 1.64647.84058.11392.006.55207-.15708.97367-.36191zm20.928138.0129c.45965-.19773.83572-.4133.83572-.47905 0-.0657-.37695-.29609-.83766-.51187l-.83766-.39234-.898.38303c-.49391.21067-.92451.40705-.95691.4364-.0682.0618 1.51442.90367 1.72084.91547.0759.004.51402-.1539.97367-.35163zm-32.014948-12.67915c-.504215-.50422-.451556-1.41062.1075-1.85038.2454-.19302.57802-.35095.73917-.35095s.49377.15793.73916.35095c.89469.70376.39316 2.18905-.73916 2.18905-.28222 0-.65852-.15052-.84667-.33867zm39.661678.0751c-.56384-.39493-.52532-1.4573.0698-1.92544.24539-.19302.57801-.35095.73916-.35095s.49377.15793.73917.35095c1.2455.97971-.24745 2.83649-1.54816 1.92544zm-36.922828-2.16031c-.43897-.46726-.48882-1.3925-.10458-1.94107.20515-.29289.43045-.37635 1.016-.37635.95028 0 1.42973.42847 1.42973 1.2777 0 1.2495-1.51287 1.92138-2.34115 1.03972zm33.866668 0c-.43897-.46726-.48882-1.3925-.10458-1.94107.2024-.28897.43144-.37635.98648-.37635.89406 0 1.45925.5155 1.45925 1.33095 0 1.19788-1.53494 1.84464-2.34115.98647zm-30.640078-2.09208c-.30183-.12144-.71611-.97414-.71611-1.47394 0-.23031.19728-.65319.43839-.93974.60977-.72467 1.57434-.73565 2.28397-.026.63102.63102.65039 1.32635.0566 2.03204-.36549.43436-.55555.51877-1.143.50762-.38753-.007-.80146-.0523-.91984-.1zm27.300868-.30231c-.29766-.29766-.41564-.60108-.41564-1.06898 0-1.32237 1.54612-2.04285 2.60183-1.21242.6135.48257.64361 1.77518.0543 2.32886-.56533.5311-1.68562.50737-2.24045-.0475zm-23.965998-2.28071c-1.1077-1.1077-.34373-2.89169 1.23832-2.89169 1.03093 0 1.65337.63748 1.65337 1.69333s-.62244 1.69334-1.65337 1.69334c-.59582 0-.84158-.0982-1.23832-.49498zm20.247548.0862c-1.172188-1.1722-.430058-2.97792 1.2239-2.97792 1.03967 0 1.74025.68169 1.74025 1.69333 0 1.0259-.69871 1.69334-1.77268 1.69334-.60168 0-.87726-.0946-1.19147-.40875zm-15.988168-1.63628c-.44287-.44287-.52102-.64803-.52102-1.36769 0-.71001.0799-.92656.49497-1.34164.41957-.41957.6285-.49498 1.3714-.49498.76209 0 .94051.0686 1.36769.52591.40137.42967.49127.67518.49127 1.34164 0 .68513-.0834.89916-.52102 1.33676-.43846.43846-.65107.52103-1.34164.52103-.69058 0-.90318-.0826-1.34165-.52103zm11.48862.026c-.41902-.41902-.49497-.62889-.49497-1.36769 0-.73881.076-.94867.49497-1.36769.41438-.41438.6321-.49498 1.33712-.49498.75204 0 .8984.0641 1.3677.59856.75502.85993.73724 1.76361-.0502 2.55104-.49063.49062-.69282.57574-1.3677.57574-.64954 0-.88097-.089-1.28693-.49498zm-5.00125-.51116c-.19669-.083-.52054-.35803-.71967-.61118-.87814-1.11637-.0825-2.61594 1.38787-2.61594.64074 0 .82874.0817 1.19836.52099.28392.33743.43838.7243.43838 1.098 0 1.09547-1.32654 2.02098-2.30494 1.60813zm2.53944-3.76295c-.26867-.20157-.81188-.67417-1.20712-1.05023l-.71862-.68373-.55138.51619c-1.40189 1.31242-2.38149 1.74811-2.60731 1.15963-.11992-.3125.26623-.92033 1.25886-1.98153l.75379-.80586-.95092-1.02711c-1.19209-1.2876-1.46603-2.19553-.66245-2.19553.33339 0 2.03532 1.29348 2.2639 1.72058.23471.43856.42362.39251 1.0792-.26307.98405-.98405 1.74318-1.48677 2.15658-1.42817.74043.10496.57195.70127-.53141 1.88076-.56409.60302-1.02562 1.16699-1.02562 1.25326 0 .0863.27319.41947.60708.74043.76411.73449 1.48986 1.94807 1.36288 2.27897-.13808.35985-.66002.31113-1.22746-.11459z" fill="#fefefe"/><path d="m105.39485 156.58714c-.8414-.38256-.87664-.38532-.95781-.0749-.0819.31323-.44519.32226-12.959867.32226-12.66452 0-12.87946-.006-13.11175-.33716-.23507-.33562-.24093-.33543-1.27301.0405-.75805.27608-1.08725.32722-1.2243.19017-.1031-.1031-.86806-1.93106-1.69991-4.06213-1.48548-3.80559-1.74346-4.84596-1.30929-5.28013.27145-.27145 1.23285-.25922 1.46343.0186.10125.122.53591 1.13165.9659 2.24366.43 1.11202 1.01021 2.61366 1.28936 3.33698l.50755 1.31512 1.04495-.55264c.59828-.31642 1.52375-1.04005 2.16508-1.6929.91399-.93041 1.1052-1.2184 1.03897-1.56484-.0446-.23353-.142019-.42564-.230369-.37104-.0883.0546-.266327-.10235-.594917-.35133-.57664-.49426-.674594-.21009-.893284.39469-.11467.31713-.40267.80735-.63999 1.08939-.53152.63168-.754932.4762-.919822-.55357-.0625-.39045-.403758-1.12024-.674488-1.60778-.65221-1.17453-.6514-1.94378.003-2.59792.55746-.55746 1.33178-.6487 2.04503-.24098.59297.33898.67733.31506.67733-.19202 0-.63548.32044-1.62083.68372-2.10245.817011-.98976 1.974892 1.29772 2.399722 2.26027.197625-.91909 1.354154-1.61313 2.299368-1.30241.57622.20537.965914.6108 1.012612 1.3757-.07526 1.69139.08208 2.59616-.267579 3.92663-.972502-.13913-1.938753-2.6739-2.730923-.38998-.32912.41294-.22821.86984.40102 1.81579.73228 1.10087 1.60864 1.76956 2.51101 1.916.71293.11569 2.04417-.2896 2.93345-.89308.44036-.29884.7987-.40614 1.23467-.36972.5291.0442.62167.11592.66785.51734.13979 1.21502-1.66885 2.3446-3.94542 2.46409-1.95236.10247-3.03577-.2358-4.04993-1.26448-.42841-.43455-.77893-.85975-.77893-.9449 0-.0851-.33945.18465-.75433.59953-.41488.41489-1.11375.9924-1.55303 1.28337l-.7987.52904 11.9247-.002 11.924697-.002-.59267-.45469c-.32596-.25008-.94563-.80169-1.37704-1.22579l-.78437-.7711-.628487.72432c-1.05007 1.21018-1.73967 1.47712-3.8141 1.47639-1.5086-.0005-1.9133-.0617-2.67091-.40353-1.13802-.51352-1.76775-1.23573-1.69839-1.94782.0781-.80132.8001-.79836 2.26947.009.94604.52001 1.33811.63977 2.10848.64406 1.19584.007 1.92296-.45311 2.89259-1.82905l.69601-.98765-.385198-1.29057c-.769219-1.22405-1.055658-.39338-1.720732.23206-1.14524 1.07124-1.11632 1.0391-1.10873-1.61465 0 0-.167871-1.07567-.06746-1.68508.122176-.74154.492335-1.08141.529865-1.11582.664205-.60891 1.329452-.43232 1.702605-.23649 0 0 .824372.56669 1.142119 1.11074.565018-1.16417.784718-1.47295 1.283688-1.96037.53156-.51055.78056-.45152 1.03527-.24072.41343.34215.66047 1.0823.76079 2.04748l-.028.92584c1.23912-1.29826 2.65578-.98632 2.99357-.0425.34624.8501.31771 1.15788-.1682 2.00784-.23093.40395-.53041 1.15774-.6655 1.67508-.34181 1.68011-.70795 1.5816-1.484-.0588-.35917-1.06874-.15154-1.13868-1.02735-.70975-.48681.2074-.574.59456-.70248.48793-.13823-.11472-.18883-.0354-.17526.27474.0368.83979 2.39249 3.03993 3.84703 3.59294.41403.15742.4326.12315 1.64263-3.03201.67312-1.75517 1.33491-3.34977 1.47064-3.54355.48321-.68988 1.75158-.34029 1.75158.48277 0 .41771-2.89688 8.18727-3.2716 8.77456-.19166.30039-.5806.24996-1.58128-.20501zm-22.286327-6.96696c-.0563-.0563-.20232-.0623-.32456-.0134-.13508.054-.095.0942.10231.1023.1785.007.27852-.0327.22225-.0889zm6.94255 1.04565c-.62665-.6919-1.13936-1.34845-1.13936-1.45901 0-.11055.4572-.71671 1.016-1.347l1.016-1.146v-3.05642-3.05642l-.46566-.0536c-.43108-.0496-.46567-.11019-.46567-.81558v-.762h1.524 1.524v.762c0 .70539-.0346.76598-.46567.81558l-.46566.0536v3.09693 3.09693l1.016 1.10878c.5588.60984 1.016 1.21331 1.016 1.34107 0 .31435-2.39817 2.67913-2.71696 2.67913-.13951 0-.76637-.5661-1.39302-1.25799z" fill="#fee49c"/><path d="m128.21117 234.1909c-.0429-.1264-.16437-1.24375-.26981-2.48301-.10544-1.23925-.37252-3.14376-.59351-4.23223-.44817-2.20736-.39463-2.44177.47482-2.0792 2.45577 1.02409 5.16332 1.64947 11.12689 2.57005 6.19373.95611 7.46132 1.33414 8.56319 2.55378.53574.593.59723.75524.55175 1.4558-.0439.67602-.13063.84179-.60839 1.16279-.97443.6547-1.93196.75088-9.01014.90506-3.7719.0822-7.60021.20054-8.50735.26308-1.31427.0906-1.66522.067-1.72745-.11612zm-75.002463-.26418c-.07424-.0742-3.729072-.14503-8.121857-.15732-8.355736-.0234-9.267031-.0942-10.351032-.80448-.354296-.23214-.429851-.4149-.429851-1.03974 0-.65494.08953-.84762.657894-1.41599 1.271246-1.27125 3.553944-1.83035 8.40144-2.05778 5.581648-.26186 8.480107-.74396 10.652946-1.77188.976769-.46208 1.454387-.46598 1.454387-.0119 0 .13889-.116843.99853-.259652 1.91031-.142811.91178-.314261 2.49598-.381 3.52045l-.121348 1.86267-.683476.0503c-.375912.0277-.744215-.0104-.818451-.0847zm-9.578375-6.3881c-.266194-.32268-1.084139-3.76781-.96702-4.07302.09922-.25857.23544-.27739 1.085062-.14994 1.496391.22446 3.086369.10073 4.694654-.36533.805891-.23354 1.534548-.38179 1.619239-.32945.181198.11199 1.177034 3.22528 1.177034 3.67978 0 .19698-.221129.4041-.600819.56274-1.258243.52573-6.69903 1.04993-7.00815.67522zm94.561638-.38924c-1.499-.223-5.42779-1.08836-5.56523-1.2258-.20063-.20063.52308-2.97351.84603-3.24153.16963-.14078.78627-.11883 2.39262.0852 1.31739.16729 2.57534.23183 3.21521.16495.85932-.0898 1.06937-.0623 1.15113.15075.055.14334-.15388 1.12472-.46419 2.18086-.58999 2.00799-.608 2.02955-1.57557 1.88561z" fill="#96bfe5"/><path d="m86.774203 264.78096c-3.380983-.54311-6.424238-1.40853-8.766326-2.49289-1.540913-.71343-1.814289-1.02895-1.566888-1.80845.0874-.27538.03826-.35088-.22841-.35088-.18688 0-.706364-.31832-1.154411-.70738-5.850367-5.08008-14.300963-8.61364-22.573966-9.43915-.9779-.0976-3.873501-.25659-6.434667-.35336-5.899358-.2229-7.047522-.4466-7.815626-1.52278-.166181-.23283-.602542-1.60443-.969693-3.048-.682142-2.68206-1.753794-6.17955-2.838657-9.26437-.906938-2.57889-.628467-3.04933 1.497891-2.53049 1.831416.44687 4.581101.61876 9.943828.62162 7.327577.004 10.286294.30908 15.566851 1.60569 8.049179 1.97643 15.958272 5.78935 20.154458 9.71634.549089.51386.567145.5701.4562 1.42079-.06354.48717-.155115 1.04722-.203508 1.24457-.06692.27291.0063.38142.3058.45323.216584.0519 1.160846.36632 2.09836.69866 2.837934 1.006 4.712176 1.33944 7.524097 1.33858 2.843765-.00085 4.188956-.24022 7.112-1.26544 1.071036-.37566 2.126234-.72456 2.344904-.77534.34429-.0799.38312-.16303.28968-.61975-.36627-1.79011-.35072-1.90382.34957-2.55641 4.36034-4.06333 12.26024-7.71684 20.63784-9.5445 5.24229-1.14366 9.56163-1.54309 16.73156-1.54722 4.47049-.003 6.00027-.1215 7.97567-.62001 1.19191-.30078 1.75184-.19995 1.88732.33985.062.2472-.31734 1.71707-1.0155 3.93442-.61301 1.94688-1.46509 4.94948-1.89352 6.67245-.42843 1.72296-.89112 3.31124-1.0282 3.5295-.5798.9232-2.82796 1.3793-6.82022 1.38368-6.43355.007-11.06647.72678-16.34511 2.53922-5.04585 1.73251-9.28381 4.02161-13.27792 7.17196-.78352.618-1.52647 1.12364-1.651 1.12364-.14587 0-.22642.21083-.22642.59266 0 .83058-.36682 1.12356-2.39191 1.91046-2.25331.87558-3.76439 1.31741-6.310183 1.84502-1.759704.3647-2.602991.43377-5.945228.48694-2.842629.0452-4.306334-.004-5.418666-.18286zm2.905724-28.15711c-.853083-.82035-1.914566-1.73949-2.358852-2.04252-2.644239-1.80352-6.32753-2.74166-13.411362-3.41592-6.433478-.61235-8.892201-1.15588-11.652856-2.576-1.847848-.95056-2.815741-1.87768-3.665567-3.51115-1.314262-2.52618-1.252288-1.54328-1.320844-20.9484-.06096-17.2559-.06013-17.30723.28564-17.653l.346782-.34678h33.866668 33.866654l.34746.34745c.3466.3466.34731.38946.29005 17.653-.0567 17.09118-.0619 17.32158-.42058 18.59985-.81437 2.90225-2.14995 4.62337-4.53493 5.84404-2.82478 1.44576-5.24479 1.9796-11.76866 2.5961-6.95664.6574-10.657096 1.60227-13.331533 3.40407-.444286.29933-1.502379 1.21846-2.351318 2.04252-2.060411 2.00004-2.113849 2.00012-4.186752.007zm-11.040886-18.90557c1.214672-.32148 3.503895-.93267 5.087161-1.35821 1.583267-.42553 3.424097-.82065 4.090735-.87804l1.212066-.10435.650601.67811c.508093.52958.82121.70308 1.429515.7921 1.213516.17758 2.177806-.11158 2.816472-.84455l.547389-.62821 1.145945.0996c1.161562.10096 2.470665.41249 8.257935 1.96512 1.76953.47474 3.88408 1.00811 4.699 1.18527l1.48167.3221v-9.02284-9.02284l-.41936-.0802c-.23064-.0441-.45924-.0403-.508.008-.0487.0488-.0886 3.80975-.0886 8.35776 0 7.99661-.0106 8.26911-.32013 8.26911-.56514 0-3.44828-.80696-5.44563-1.52417-1.0664-.38293-2.81521-.9258-3.88623-1.20638-1.643128-.43046-2.198265-.50171-3.553603-.45614-1.353728.0455-1.614337.0122-1.657604-.21212-.08471-.43916.788977-.71628 2.50187-.79357 1.958118-.0883 3.15506.16491 5.900837 1.24854 2.71365 1.07094 4.75551 1.75851 5.22225 1.75851h.39157v-8.382-8.382h-.508-.508v7.80279 7.80278l-.55033-.11634c-.30269-.064-1.5586-.52717-2.79092-1.0293-5.129386-2.09005-7.822965-2.31326-10.058932-.83357-.613254.40583-.658641.4879-.56015 1.0129.164653.87767-.03092 1.24548-.781885 1.47047-.514363.15411-.821817.15352-1.342796-.003-.74189-.22228-.96622-.65862-.790446-1.53749.08771-.43855.0161-.54031-.699745-.99451-2.249168-1.42706-4.784464-1.20054-9.902202.88477-1.232322.50212-2.488235.96531-2.790918 1.0293l-.550334.11634v-7.80279-7.80278h-.508-.508v8.382c0 7.99024.01439 8.382.307933 8.382.516848 0 2.02353-.49163 4.719552-1.53998 3.379204-1.314 4.460418-1.55851 6.487182-1.46707 1.712893.0773 2.586577.35441 2.50187.79357-.04327.2243-.303876.25765-1.657604.21212-1.84188-.0619-3.984851.4161-7.448266 1.6615-2.005532.72116-4.871835 1.52519-5.437205 1.52519-.309579 0-.320128-.2725-.320128-8.26911 0-4.54801-.03989-8.309-.08865-8.35776-.04876-.0488-.277357-.0526-.508001-.008l-.419354.0802v9.02284 9.02284l1.474506-.32222c.810978-.17722 2.468328-.58525 3.683-.90673zm1.531161-5.00173c1.210734-.53943 2.475173-1.06715 2.809864-1.17269 1.08133-.34101 3.240682-.50642 4.517793-.34606 1.389119.17443 2.26588.56832 3.176382 1.42704.349067.32921.662108.59857.695648.59857s.06098-3.42014.06098-7.6003v-7.60029l-.635-.57296c-1.425856-1.28653-2.903464-1.83712-4.930262-1.83712-1.097234 0-1.690951.13853-4.354405 1.016-1.69617.5588-3.237999 1.016-3.426289 1.016-.927301 0-.878044-.46237-.878044 8.2422v8.03662l.381-.11311c.20955-.0622 1.3716-.55446 2.582333-1.0939zm26.161988-6.85147v-8.03566l-.635-.11186c-.34925-.0615-2.0447-.56799-3.76766-1.12548-3.067547-.99255-3.164338-1.01204-4.656661-.93746-1.900397.095-3.080256.53005-4.275666 1.57669l-.889.77836v7.62657 7.62657l.669703-.60503c1.434285-1.29579 3.262759-1.75088 5.852436-1.45663 1.560748.17735 2.563848.49885 4.738518 1.51874 1.47309.69085 2.57309 1.14419 2.83633 1.16892.0699.007.127-3.60412.127-8.02373zm-54.585911 20.48155c-.240755-.24076-.374829-.63524-1.038691-3.0561l-.280864-1.02421-1.214928.41526c-.904951.30931-1.700275.43562-3.117204.49508-1.812982.0761-1.946955.058-2.854075-.38585-.763518-.37356-1.014546-.60385-1.269005-1.1642-.462588-1.01869-.412043-2.03723.161234-3.24901.541773-1.1452 1.321886-1.8605 2.7542-2.5254 2.327157-1.08029 5.515236-1.23644 7.258589-.35552 2.409232 1.21739 3.715937 3.58633 3.722831 6.74917.003 1.375-.297675 2.1751-1.148766 3.0569-1.105219 1.14511-2.412966 1.60423-2.973321 1.04388zm78.799481-.75077c-1.16205-.35348-2.05551-1.10073-2.64535-2.21245-.23178-.43686-.31368-.9488-.31154-1.94734.003-1.16415.0771-1.50945.5302-2.45533.67167-1.40206 1.34244-2.1108 2.49877-2.64018 2.79513-1.27965 7.78714-.84045 10.04806.88404 1.18935.90716 1.71471 3.10217 1.0026 4.18898-.61442.93772-1.18205 1.12272-3.41697 1.11362-1.1176-.005-2.58445-.10716-3.25967-.22803-.74015-.13248-1.22767-.15548-1.22767-.0579 0 .42893-.89663 3.03059-1.12219 3.25615-.27242.27242-1.35688.32335-2.09624.0984zm-73.054129-40.74788c-.235773-.23577-.266096-1.38252-.266096-10.06324 0-8.68071.03032-9.82746.266096-10.06323.240138-.24014 3.583855-.2661 34.277905-.2661 30.694044 0 34.037754.026 34.277894.2661.23577.23577.2661 1.38252.2661 10.06323 0 8.68072-.0303 9.82747-.2661 10.06324-.24014.24014-3.58385.2661-34.277894.2661-30.69405 0-34.037767-.026-34.277905-.2661zm65.265899-10.06324v-6.94266h-31.072661-31.072667v6.94266 6.94267h31.072667 31.072661zm-49.754646 6.35271c-1.659455-.51788-2.817884-1.90097-3.019748-3.60539-.115748-.97731.182489-1.39265 1.000011-1.39265h.525423l-.348376-.381c-.715877-.78291-.963995-1.51338-.963422-2.83633.000846-1.90636.657606-2.98068 2.268763-3.71111 1.088577-.49351 3.82079-.49418 4.907623-.001.994669.45117 1.310636.75329 1.802729 1.72368.559747 1.1038.696072 2.17801.323671 2.55041-.156684.15668-.442963.28488-.636177.28488-.327408 0-.320243.0288.105349.4232.67554.62607.947684 1.44065.945818 2.83102-.0039 2.90999-1.748258 4.39092-5.129014 4.35445-.577499-.006-1.379692-.11422-1.78265-.23997zm31.974646-.27041c-1.39893-.63324-2.2296-1.72396-2.45435-3.2227-.14719-.98155.15357-1.3356 1.13461-1.3356h.68808l-.4509-.35467c-.79336-.62406-1.11878-1.50597-1.11878-3.03199 0-1.64969.35082-2.47069 1.37177-3.21026 1.78799-1.29521 5.51286-1.10149 6.87272.35744 1.28137 1.37472 1.39904 3.69948.18725 3.69948-.32812 0-.32366.0203.0732.33245.23246.18285.59523.73363.80616 1.22396.31836.74003.3674 1.08378.28864 2.02318-.22698 2.7074-1.73833 3.87482-5.00672 3.86736-1.27154-.003-1.79718-.0795-2.39171-.34865zm-18.529899-.0831c-.230767-.23077-.266095-.98228-.266095-5.66057s.03533-5.4298.266095-5.66057c.207649-.20765.651311-.2661 2.019905-.2661 2.24216 0 2.286.0376 2.286 1.95943v1.42724h.592667.592666v-1.42724c0-1.92185.04384-1.95943 2.286-1.95943 1.368595 0 1.812257.0584 2.019905.2661.230767.23077.266095.98228.266095 5.66057s-.03533 5.4298-.266095 5.66057c-.207648.20765-.65131.2661-2.019905.2661-2.294558 0-2.286.009-2.286-2.2981v-1.7659h-.592666-.592667v1.7659c0 2.3067.0086 2.2981-2.286 2.2981-1.368594 0-1.812256-.0584-2.019905-.2661zm-5.588-3.556c-.209226-.20923-.266095-.65901-.266095-2.10457 0-2.40043-.02976-2.37067 2.370666-2.37067 2.400429 0 2.370667-.0298 2.370667 2.37067 0 2.40043.02976 2.37067-2.370667 2.37067-1.445564 0-1.895344-.0569-2.104571-.2661zm16.764001 0c-.209227-.20923-.266096-.65901-.266096-2.10457 0-2.38928-.01795-2.37067 2.286004-2.37067 2.30393 0 2.28599-.0186 2.28599 2.37067 0 2.38928.0179 2.37067-2.28599 2.37067-1.368598 0-1.81226-.0584-2.019908-.2661z" fill="#562500"/><path d="m87.07601 265.77436c-3.7237-.51664-7.65562-1.64758-10.55801-3.03681-2.16949-1.03842-2.09189-.95953-1.64883-1.67642l.37274-.6031-1.62555-1.20585c-5.516154-4.09193-11.913669-6.93549-18.502233-8.22385-2.354393-.46039-7.089075-.78789-9.170226-.63431-1.868452.13788-5.551511-.20054-6.644902-.61058-1.649075-.61843-2.175114-1.35492-2.703588-3.78523-.651072-2.9941-1.329021-5.47827-2.430842-8.9072-.610923-1.90122-1.155972-3.73946-1.211221-4.08497-.136521-.85375.311744-2.30336.950731-3.07449 1.051524-1.26897 3.609791-2.19085 6.907177-2.489.86455-.0782 1.609177-.17941 1.654728-.22496.04555-.0455-.313382-1.33209-.797627-2.85898-1.058567-3.3378-1.124046-4.18398-.433055-5.59631.941687-1.92474 3.185837-3.33662 6.082223-3.82656 2.710276-.45845 5.033223.11119 6.801818 1.66797l.783338.68952v-27.27705-27.27706h9.98621 9.986209l-.74633-.74633c-.752387-.75239-1.276757-1.97588-1.276757-2.979 0-.83673.49914-2.13002 1.087217-2.81706l.58685-.68561-1.354157-3.45566c-.87205-2.22538-1.33121-3.62146-1.2897-3.92134.0506-.36546-.004-.46566-.25328-.46566-1.38155 0-2.145781-1.76213-1.23412-2.84558.47146-.5603 1.08235-.74113 1.80426-.53409.47838.13719.4836.13084.4836-.58865 0-.47633.11953-.87931.34637-1.16768.554547-.70501 1.840047-.91526 2.489507-.40719.16458.12876.18933.002.11208-.57479-.0808-.60292-.0248-.84937.30187-1.33022.22055-.32461.58921-.68972.81925-.81135.52075-.27534 1.77079-.16882 2.16079.18412.26996.24431.28946.19453.28946-.73872 0-.9044.0533-1.05394.55359-1.55426.50045-.50045.64975-.55359 1.55522-.55359.87743 0 1.06599.0617 1.52074.49734l.51912.49735v-.63276c0-1.35022.98378-2.308 2.37067-2.308 1.91857 0 2.96113 1.8654 2.02193 3.61773-.1918.35786-.31643.68295-.27696.72242.0395.0395.46289.11809.94092.1747l.86916.10294.11082-.5541c.0673-.33658.23423-.58637.42519-.6363.30056-.0786.29852-.10785-.0464-.66601-.42824-.69291-.37367-1.89612.11026-2.43085.29511-.32609.28235-.3318-.74197-.3318-.83211 0-1.04225-.0533-1.04225-.2646 0-.40875-.32889-5.15925-.40666-5.87373l-.0691-.635h3.81883 3.81882l-.11342 1.82033c-.0624 1.00119-.16106 2.52519-.21927 3.38667l-.10584 1.56633h-.98852-.98852l.33555.55034c.42722.70069.42638 1.41734-.002 2.12076-.40425.66303-.41078.71557-.0889.71557.13836 0 .31389.24474.39471.55033.13426.50766.1979.54938.82052.53801.37124-.007.80227-.0612.95786-.12088.25715-.0987.25017-.16401-.0768-.71813-.95535-1.6192.13914-3.63366 1.97517-3.63536 1.36349-.001 2.44637 1.04175 2.45784 2.36739.004.48651.0367.54115.17775.29897.25674-.44081 1.07036-.80441 1.79836-.8037 1.38418.001 2.39867 1.21594 2.17644 2.6057-.10687.66832-.10404.67285.23085.36978.18647-.16876.66598-.34265 1.06558-.38642 1.36701-.14976 2.54317 1.17473 2.17699 2.45154l-.14153.49348.61554-.21589c1.40153-.49156 2.73511.54283 2.5271 1.96015-.0412.2807-.055.51036-.0306.51036s.25075-.0785.50306-.17441c.54997-.2091 1.40938.027 1.84317.50631.15886.17553.32845.61454.37687.97557.0724.5395.008.75193-.36322 1.19271-.27602.32803-.67691.57864-1.03229.64531-.49115.0921-.56678.16574-.48895.47584.0577.23008-.41567 1.67534-1.26986 3.8767l-1.36192 3.50986.57549.75393c1.44563 1.89387 1.31147 4.31115-.32762 5.90301l-.64166.62317h10.01665 10.01664v27.28021 27.2802l.57879-.50818c2.14841-1.88633 8.22373-1.96603 11.32498-.14858 1.02516.60078 1.92627 1.65065 2.16043 2.51708.28688 1.06151.11768 2.10362-.81947 5.04727-.45958 1.44356-.81899 2.64568-.79868 2.67136.0203.0257.75249.16108 1.6271.30086 5.10396.81576 7.45999 2.31186 7.85389 4.98732.0951.6458-.0366 1.2305-.85807 3.81-1.39238 4.37223-1.87743 6.09605-2.54388 9.04057-.3245 1.43373-.67214 2.76723-.77253 2.96333-.37373.73004-1.25275 1.46838-2.1461 1.80262-1.08543.40612-4.90269.75225-6.71646.60902-2.05243-.16207-6.74873.17201-9.21525.65555-6.65622 1.3049-11.98753 3.71862-17.81724 8.06667l-2.01504 1.50291.25988.50255c.25964.50208.25921.50298-.44827.9496-.91928.58032-4.38524 1.96325-6.30829 2.51704-1.85731.53486-4.29245 1.03375-6.19202 1.26856-1.91886.23719-6.14327.19526-8.13244-.0807zm6.87093-1.27658c3.61434-.35171 8.09802-1.48341 10.94677-2.76302l.96904-.43528-.60498-1.40118c-1.20995-2.80237-3.0783-7.53254-3.55039-8.98864-.36771-1.13418-.54541-1.47213-.74179-1.41077-.14203.0444-.99903.35169-1.90444.68293-4.96469 1.81631-10.1092 1.81625-15.28714-.00017-2.42697-.85139-2.286-.82085-2.286-.49526 0 .40538-1.66157 4.68093-3.25601 8.37835-1.56738 3.63469-1.66774 3.20324.98652 4.241 4.63006 1.81026 10.17348 2.63531 14.72842 2.19207zm-5.85493-3.77903c-1.56886-.18494-1.60771-.20011-1.57023-.61297.0908-1.00051.58524-5.33598.61082-5.35632.0154-.0123.80913.0581 1.76375.15648l1.73566.1788v.52977.52978l-.97366-.12163c-1.74332-.21778-1.73567-.21965-1.73567.4227 0 .63063.24637.77286 1.35467.78204.79899.007 1.00172.1674.89762.71193-.0733.38348-.1597.44625-.53486.38857-1.87287-.28793-1.83664-.29306-1.95053.27639-.18268.91337-.14757.96739.69877 1.07523 1.95873.24959 1.93001.23838 1.87298.73076-.063.54378-.11296.55089-2.16932.30847zm6.20866-.64226c-.0545-.40299-.18881-1.48439-.29853-2.4031l-.19949-1.67039-.72275.0815c-.6908.0779-.72592.0598-.79458-.40793-.0572-.38994-.00017-.50468.28044-.56462.32056-.0684 3.25332-.42319 3.50803-.42432.0593-.00034.14038.22159.18021.49301.0686.46731.0337.49931-.65811.60305-.4018.0602-.72985.16203-.72901.22617.00085.0641.11718 1.09885.25851 2.29934.14134 1.20049.23574 2.20395.20979 2.2299-.026.026-.24706.0974-.49133.15866-.41867.10508-.44982.0695-.54318-.62123zm-16.74887-3.35738c1.52442-3.59044 2.61313-6.61362 3.10506-8.62228l.39061-1.59496-.83806-.74644c-1.54282-1.37414-5.35868-3.78758-8.109707-5.1292-4.991998-2.43449-10.555762-4.13091-16.867316-5.14292-2.086749-.33459-8.223598-.60721-12.860373-.57129-3.506315.0272-6.010527-.16882-7.250346-.56741-.308923-.0993-.596836-.14542-.639806-.10245-.04297.043.125648.64111.374707 1.32921.890069 2.45906 2.305134 7.05196 2.962365 9.61499.367619 1.43362.714086 2.68051.769925 2.77086.231109.37394 1.622826.80375 3.118832.96321.877611.0935 3.691156.24834 6.252323.34399 4.995207.18656 6.880615.40727 10.075334 1.17945 6.337864 1.53188 12.552865 4.57052 16.933332 8.27905.65193.55194 1.23292.95552 1.29109.89685.0582-.0587.63958-1.36396 1.29203-2.90066zm-4.630737-4.50902c-.82961-.51957-1.53659-.97135-1.57107-1.00396-.0469-.0444 2.711017-4.69014 2.937047-4.94749.0225-.0256.73644.38137 1.58666.90431 1.34619.82798 1.52414.99133 1.37783 1.26471-.29448.55025-.48324.53621-1.53716-.1143l-1.03169-.6368-.3189.41494c-.1754.22822-.3206.45326-.32267.5001-.002.0468.45456.37164 1.01474.7218 1.01318.63333 1.01707.63884.74469 1.05455-.30136.45992-.3315.45306-1.65219-.37642-.35805-.22487-.668477-.38431-.689837-.35431-.52799.74169-.80043 1.18419-.75197 1.22137.0334.0256.53706.33158 1.119137.67984 1.09411.65461 1.20235.82821.82566 1.32418-.20408.2687-.34302.2163-1.730277-.65252zm-4.530797-2.47866c-.27038-.19771-.215001-.37853.713086-2.32834l1.006231-2.11398-.618449-.31758c-.340148-.17467-.643677-.3396-.674505-.3665-.0458-.04.253712-.71405.394067-.88688.02098-.0258.839957.34287 1.819957.81934 1.51708.7376 1.76868.91652 1.69342 1.2043-.12414.47473-.43572.54614-1.0337.23691-.28318-.14644-.54638-.26625-.58489-.26625-.0385 0-.51744.9525-1.06428 2.11666-.546846 1.16417-1.076055 2.11667-1.176026 2.11667-.09997 0-.313682-.0965-.474911-.21435zm-2.184585-1.00828c-.399161-.13737-.465666-.25298-.465666-.80948 0-.61639-.03975-.66439-.786119-.94943l-.786118-.30022-.363243.45555c-.410083.51429-.420304.5172-1.018021.28995l-.435547-.16559 1.804489-2.33208c.992468-1.28264 1.826099-2.35871 1.852512-2.39128.02641-.0326.312125.028.634917.13449.54909.18121.582666.23411.521221.8212-.03612.34514-.146038 1.69129-.24426 2.99145-.09822 1.30017-.194315 2.37558-.213541 2.38982-.01923.0142-.244507-.0462-.500624-.13438zm-.205797-3.24482c.195883-1.30624.06062-1.45558-.557325-.61531-.302066.41075-.549211.79636-.549211.85691 0 .10713.644889.46609.878625.48906.06414.006.166703-.32249.227911-.73066zm-5.950933 1.12409c-.131355-.0895.0019-.78901.443837-2.32931.34736-1.21073.600615-2.25553.562789-2.32177-.03783-.0662-.332803-.16997-.655503-.23051-.596109-.11183-.656702-.21783-.486652-.85127.09503-.354.103486-.35325 1.933807.17223 1.011096.29028 1.883635.57306 1.938975.6284.05534.0553.02528.29877-.06679.54095-.153465.40364-.209996.42549-.678473.26218-.281083-.098-.60673-.14627-.723662-.10729-.116931.039-.483092 1.01741-.81369 2.17431-.491395 1.71958-.66184 2.11134-.933996 2.14675-.1831.0238-.417388-.0143-.520639-.0847zm-3.359902-.87643c-.08098-.13104.73847-4.37648 1.024012-5.30521.05011-.16298.219324-.29516.376031-.29374.661753.006.688618.19593.287112 2.02956-.21411.97782-.479046 2.216-.588745 2.75151-.175219.85536-.248222.97367-.60079.97367-.220734 0-.444662-.0701-.49762-.15579zm-2.572598-.60829c-.05405-.14084-.04875-.5863.01179-.9899.130383-.86946-.03176-1.06006-1.038752-1.22108l-.695737-.11126-.119923 1.11983c-.117121 1.09358-.131374 1.11982-.608205 1.11982-.584743 0-.580395.0812-.176762-3.30199l.282831-2.37067.472743-.0543c.947864-.10896 2.727071.27742 3.039249.66002.420174.51496.389697 1.6853-.05873 2.25538-.271946.34572-.310269.50537-.163711.68196.111882.13481.171438.6947.1434 1.34811-.04709 1.09743-.05643 1.11755-.518937 1.11887-.265131.00068-.513932-.11058-.56925-.25474zm.244363-3.33378c.265217-.26522.260425-.89446-.0085-1.11159-.116417-.094-.525008-.22256-.907979-.28567-.679598-.112-.698907-.10179-.804334.42535-.163144.81572-.135001.97389.188313 1.05838.590291.15426 1.333681.11231 1.532466-.0865zm-12.41253 2.87019c-.07573-.21534-1.269603-5.54647-1.269603-5.66928 0-.0369.246996-.0433.54888-.0141l.54888.0531.371238 2.09134c.204182 1.15023.405234 2.12533.446784 2.16688.04155.0416.127577-.13755.191171-.39801.06359-.26045.349642-1.2165.635661-2.12455.377026-1.19698.595294-1.65029.79371-1.64841.750095.007.732509.21068-.260609 3.01662-.944428 2.66838-.981372 2.73812-1.450395 2.73812-.264706 0-.514778-.0952-.555717-.21167zm4.149063-2.66699v-2.87867h1.862667 1.862667v.508.508h-1.354667-1.354667v.59267.59266h1.185334 1.185333v.508.508h-1.185333-1.185334v.762.762h1.354667 1.354667v.508.508h-1.862667-1.862667zm62.907333 15.77293c5.20756-3.96619 12.53317-7.05093 19.77132-8.32551 1.29281-.22765 3.36991-.39032 6.47535-.50712 7.34253-.27615 8.65363-.49465 9.03784-1.50618.0917-.24134.44585-1.58179.78709-2.97879.50979-2.08706 2.43762-8.6203 2.89668-9.81658.10261-.26741.0603-.29595-.28938-.19527-1.97835.56963-2.97114.64932-9.7229.78043-5.48658.10655-7.49577.20878-9.57991.48747-10.49675 1.4036-19.52334 4.86759-25.44227 9.76356l-1.15551.95581.1162.70562c.29939 1.81815 1.76628 6.08217 3.5554 10.33501l.97377 2.31473.52616-.42623c.28939-.23443 1.21196-.94856 2.05016-1.58695zm.18189-8.56481-2.18878-2.08863.52702-.27253.52702-.27253 1.48126 1.6045c.81469.88248 1.49993 1.58584 1.52274 1.56303.0228-.0228-.2181-.95494-.53536-2.07139s-.57855-2.07483-.58065-2.12973c-.004-.1092.86146-.53573.92718-.45685.0223.0268.34182 1.35706.71004 2.9562l.66948 2.90752-.40122.18281c-.22067.10054-.41669.17908-.43559.17452-.0189-.005-1.01931-.94818-2.22314-2.09692zm4.22832-2.15294c-1.13282-2.45602-1.16541-2.56257-.85351-2.79063.17835-.13042.4019-.21124.49678-.17962.0949.0316.69489 1.19107 1.33333 2.57654 1.08176 2.34747 1.14036 2.53401.86031 2.73878-.16529.12086-.3812.2172-.47982.21409-.0986-.003-.70931-1.15473-1.35709-2.55916zm2.70167-1.2528c-.53483-1.44775-.93994-2.66476-.90024-2.70447.0397-.0397.58411-.26487 1.2098-.50038 1.57297-.59206 2.16815-.56722 2.74172.11444.39126.46498.44555.65766.37937 1.34639-.0546.56772-.0115.82898.14666.88967.20527.0788 1.29342 2.1438 1.18616 2.25105-.0257.0257-.27581.0925-.55581.14854-.47797.0956-.52695.0551-.8009-.66223-.40374-1.05716-.62172-1.20855-1.37994-.95831-.33609.11092-.64742.29639-.69185.41216-.0444.11577.0789.61566.27412 1.11086.28304.71806.31036.92861.13496 1.03987-.60801.38567-.76566.16081-1.74405-2.48759zm1.77469-1.02677c.56531-.22619.68076-.3519.68076-.74127 0-.85013-.49882-.99669-1.76011-.51715-.41773.15883-.41869.16415-.15112.84532.1481.37702.33237.68548.40949.68548.0771 0 .44656-.12257.82098-.27238zm4.93242 1.16287c-.0907-.35007-.25194-.97939-.35837-1.39849s-.30934-1.16848-.45091-1.66529c-.27556-.96707-.25141-.95683-1.43306-.60749-.19177.0567-.31122-.0558-.38924-.36669-.0619-.24667-.0734-.48762-.0256-.53546.11168-.11167 3.68473-1.08496 3.74859-1.0211.0264.0264.0994.25262.16215.50264.1054.41993.0613.4688-.5789.64118-.38115.10263-.69299.23015-.69299.28337 0 .0532.26895 1.08943.59767 2.30269.32872 1.21325.57637 2.22285.55033 2.24355-.026.0207-.25377.0871-.50608.1476-.41959.1006-.4728.0557-.6236-.52651zm3.79087-.79124c-.22482-.22481-.45193-.58676-.5047-.80433-.11838-.48811-.73348-4.27902-.7009-4.31973.013-.0162.24897-.0543.52443-.0847l.50083-.0552.31668 2.032c.18906 1.21308.42381 2.15142.58249 2.32833.53431.59569 1.56825.19685 1.56774-.60476-.00012-.2029-.11432-1.0166-.25376-1.80824-.37615-2.13539-.3542-2.37066.22117-2.37066.47333 0 .47631.007.76369 1.82033.3303 2.08398.35899 2.97459.11078 3.43838-.47131.88065-2.41068 1.14631-3.12845.42853zm5.98687-.13033c-.0139-.0295-.071-1.12038-.127-2.42425l-.10173-2.37066-.71967.0569c-.69786.0552-.71966.0417-.71966-.44592 0-.63012.24777-.70625 2.30858-.70933 1.46165-.002 1.55219.0186 1.64869.37869.16474.61474.14324.635-.67411.635h-.78085l.0612 2.413.0612 2.413-.46566.0536c-.25612.0295-.47704.0295-.49094 0zm3.58127-3.01691v-2.87867h1.86267 1.86266v.508.508h-1.35466-1.35467v.58525.58524l1.22767.0498c1.19407.0484 1.22911.0623 1.28051.50778.0527.45705.0502.45815-1.18534.508l-1.23817.05-.0521.71967-.0521.71966h1.3644 1.3644v.508.508h-1.86266-1.86267zm-40.35463 7.63482c.85545-.18598 2.27776-.57768 3.16068-.87045l1.60532-.53232-.0921-1.21739-.0921-1.2174 1.20946-1.11977c3.14212-2.90912 8.04173-5.50729 14.47956-7.67823 2.82641-.95311 7.0733-2.08806 9.20142-2.45902 1.20708-.2104 1.22659-.22206 1.33448-.79717.18537-.98809-.039-3.60987-.4328-5.05701l-.37441-1.37594-1.2148 1.21067c-1.92353 1.91699-4.49042 3.07528-8.6643 3.90972-2.00813.40146-2.89966.51495-8.0445 1.02404-5.80474.57438-9.71413 1.77562-12.36919 3.80066-.50791.38739-1.65012 1.4662-2.53825 2.39735l-1.61477 1.69301-1.85656-1.88708c-4.20937-4.27858-6.74673-5.18044-17.858557-6.34748-6.358436-.66781-11.131735-2.32799-13.723779-4.77319l-1.126821-1.06298-.279368 1.27139c-.345834 1.57388-.392565 5.30192-.0677 5.40087.116417.0355 1.126067.26113 2.243667.50149 2.38.51186 5.707666 1.49758 8.606142 2.5493 5.953689 2.16033 10.832546 4.89648 13.968336 7.83371l1.22533 1.14773-.25623.93133c-.14093.51223-.25713 1.02111-.25824 1.13083-.004.39195 3.24151 1.37338 6.08188 1.83917 1.95536.32066 5.68702.20226 7.74815-.24584zm-3.32759-12.98202c1.21159-1.23643 2.73056-2.44051 3.88889-3.08271 2.21515-1.22814 6.00716-2.18068 10.58333-2.65851 7.71459-.80554 9.41908-1.08865 11.85-1.96826 3.32402-1.20277 5.01262-2.94898 5.95935-6.16266.2759-.93655.30353-2.36337.35342-18.24566l.0541-17.22967h-33.71016-33.710187l.05621 17.22967c.05118 15.68812.08241 17.32673.348972 18.31457 1.252413 4.64117 5.060319 6.76771 13.661628 7.6294 7.240857.7254 9.660107 1.12851 12.293857 2.04845 2.50319.87434 4.27044 2.02663 6.32702 4.12538.50906.51949.96886.94453 1.02179.94453.0529 0 .51273-.42504 1.02178-.94453zm44.27489-2.78166c4.63364-.0846 8.19876-.22244 8.79996-.34013 2.14739-.42038 2.83547-1.15938 2.1908-2.35295-.65624-1.21499-2.24281-1.88893-5.8232-2.47354-1.35203-.22076-3.75363-.60694-5.3369-.85816-3.47032-.55066-6.99277-1.39867-8.30481-1.99934l-.9632-.44097.10175.46531c.43133 1.97258.81578 4.68037.90265 6.35768.0899 1.73601.13884 1.98373.37354 1.89105.14854-.0587 3.77527-.17069 8.05941-.24895zm-81.98079-2.53914c.05945-1.2573.214865-2.8575.345374-3.556.130507-.6985.224409-1.28406.208669-1.30124-.01575-.0172-.484461.18666-1.041603.45297-2.106591 1.00694-4.701197 1.45903-9.78414 1.70478-5.486078.26525-7.924969.80749-9.202876 2.04609-1.097155 1.0634-.844743 1.98997.66069 2.4253 1.411417.40813 3.779709.5141 11.490236.5141h7.215563zm-6.221647-4.24371c1.724421-.30546 2.64233-.66264 2.520244-.9807-.05888-.15341-.31165-.95092-.561699-1.77226-.396874-1.3036-.497671-1.48336-.793373-1.41492-.186306.0431-.941477.23887-1.678158.43499-1.460682.38888-3.348218.46366-4.391458.17398-.357983-.0994-.687725-.14389-.73276-.0989-.04503.045.07169.64114.259379 1.32468.187692.68354.428109 1.57774.534259 1.98712l.193.74433 1.827399-.11099c1.005069-.061 2.275494-.19036 2.823167-.28737zm90.765557-1.00563c.12524-.4191.37093-1.26217.54599-1.87349l.31829-1.11149-1.39259.0731c-1.2404.0651-3.1182-.0974-4.57481-.39595l-.508-.10411-.40355 1.4633c-.23117.83827-.33966 1.52374-.254 1.60481.19633.18578 5.1107 1.17736 5.63526 1.13703.32465-.0249.45123-.18346.63341-.79319zm-85.831226-.79422c.303543-.2259.712402-.72535.908575-1.10988.678844-1.33064.194476-4.45847-.91448-5.90529-.672153-.87694-1.949975-1.77408-2.889128-2.02841-1.471256-.39844-3.831536-.11279-5.625659.68084-2.044474.90437-3.296313 3.13899-2.566495 4.58138.260577.51499 1.297669 1.11712 2.162222 1.25537 1.365552.21836 4.494414-.47944 5.563668-1.24082l.479499-.34143.460128 1.6469c.25307.90579.574429 2.05133.714133 2.54564l.254005.89875.450818-.28616c.247949-.15738.69917-.47098 1.002714-.69689zm78.675156-1.28011c.23258-.76835.47423-1.60727.537-1.86427.0628-.25699.17917-.50746.25866-.55659.0795-.0491.8521.0348 1.71691.18639 2.22966.39096 4.8445.41334 5.40555.0463.99326-.64986 1.037-2.06296.097-3.13355-1.15495-1.31542-3.65438-2.02946-6.54637-1.87018-2.0207.11129-3.08422.47978-3.98526 1.38081-1.06395 1.06395-1.52216 2.14033-1.52456 3.58129-.002 1.04799.0597 1.28821.48721 1.90574.66983.96746 1.61125 1.4997 3.01422 1.7041.0642.009.30704-.61164.53963-1.37999zm-7.00639-48.895v-9.48266h-33.69733-33.697332v9.48266 9.48267h33.697332 33.69733zm-18.7096-14.29847c.63659-.26599 1.26664-1.13789 1.26764-1.75427.001-.60485-.46969-1.37056-1.06593-1.73411-.5266-.32109-.96048-.33056-15.16385-.33118-16.03536-.00068-15.37605-.042-15.9927 1.0019-.61786 1.04596-.18084 2.32112.96675 2.82078.80402.35007 29.14984.34712 29.98809-.003zm-26.79873-1.07326c-.67522-.34077-1.22767-.66244-1.22767-.7148 0-.0524.56934-.37692 1.26519-.72123l1.26519-.62604 1.37393.66442 1.37392.66441-1.36535.68649c-.75095.37756-1.3861.68195-1.41145.67642-.0253-.006-.59854-.28889-1.27376-.62967zm2.111-.3146c.39894-.15236.72533-.32874.72533-.39198 0-.15028-1.12568-.68569-1.44165-.68569-.33306 0-1.60656.51828-1.60548.65339.00084.11153 1.13945.65587 1.4328.68502.09.009.49007-.10839.889-.26074zm6.82133-.40033v-1.35467h2.87867 2.87867v1.35467 1.35466h-2.87867-2.87867zm5.042477-.86199-4.325506.004-.0099 1.78473 4.35763-.006zm6.939703 1.55394c-.72077-.33401-1.31132-.6515-1.31234-.70555-.001-.054.6129-.37472 1.36425-.71263l1.36609-.61436 1.25858.62276c.69222.34252 1.25858.67002 1.25858.72778 0 .10791-.30991.26749-1.778.91555l-.84667.37374zm2.27005-.36768.69206-.35307-.82581-.38275-.82581-.38275-.71967.34622c-.39581.19043-.71966.39342-.71966.4511 0 .15409 1.05107.65088 1.40374.66348.1667.006.61451-.14805.99515-.34223zm5.4901-6.89565c.87652-2.25833 1.59367-4.25488 1.59367-4.43678 0-.42549-.78089-.65186-1.09282-.3168-.11962.1285-.76975 1.68143-1.44474 3.45096-.67498 1.76953-1.26457 3.31247-1.3102 3.42876-.15626.39826-2.41342-.95315-3.62214-2.16866-.98267-.98819-1.21398-1.13679-1.8877-1.21273l-.76781-.0865-.6733.95473c-.46139.65425-.95284 1.10688-1.56155 1.43818-1.20254.65451-2.24169.55678-3.94496-.37098-1.31256-.71494-1.64411-.73935-1.64411-.12104 0 .92455 2.12293 1.94828 4.04019 1.94828 1.73607 0 2.5836-.3608 3.62399-1.54275l.87935-.99898.65393.76503c.35966.42077 1.13472 1.10812 1.72235 1.52745 1.06352.75891 3.42964 1.96673 3.70018 1.88881.0781-.0225.85915-1.88861 1.73567-4.14694zm-30.60267 3.4229c1.51533-.67812 2.80368-1.53837 3.78421-2.52674l.93188-.93934.45904.60183c.25248.33101.661.7891.90785 1.01799 1.44362 1.3386 5.07946 1.2032 6.63188-.24699.9313-.86996.53737-1.62632-.52482-1.00769-1.43486.83568-2.10756 1.06776-3.1194 1.07619-1.29278.0108-2.17195-.51881-3.04551-1.83448l-.60237-.90723-.78617.0886c-.69594.0784-.91351.21712-1.89555 1.20823-.70602.71254-1.55744 1.35386-2.34176 1.7639l-1.23239.64429-.17456-.47739c-.096-.26256-.72276-1.88708-1.39278-3.61004-1.13226-2.91164-1.25023-3.13637-1.67199-3.18515-.317097-.0367-.508907.0505-.636817.28954-.15053.28127.0829 1.02759 1.314067 4.20115.82341 2.12252 1.54798 3.99773 1.61016 4.16713.1298.35368.36742.31058 1.78503-.32382zm26.43901.26981c0-.33565-.11289-.33867-12.69001-.33867-8.27734 0-12.72639.0589-12.79466.16934-.0576.0931-.0576.24553 0 .33866.0683.11046 4.51732.16934 12.79466.16934 12.57712 0 12.69001-.003 12.69001-.33867zm-25.36547-3.43358c.9597-.66428 2.1668-2.01462 2.1668-2.42392-.346591-.67259-1.120897-1.40862-1.394469-.32442-.11203.55752-.824421 1.50874-1.055711 1.47868-.0903-.0117-.24855-.39594-.35166-.85378s-.39118-1.18002-.64015-1.60486c-.58458-.9975-.5977-1.85249-.037-2.41315.84771-.84771 2.48556-.31993 2.70937.87308.098.52216.63808 1.81799.86388 2.07258.0289.0326.13123.0107.22736-.0487.10919-.0675-.0163-.48408-.3345-1.11021-.66069-1.30015-.80391-2.46556-.42495-3.45785.1575-.41241.38588-.83242.50751-.93337.33957-.28181 1.01857.34792 1.55304 1.44035.42389.86639.45066 1.04493.35656 2.37825-.0767 1.08648-.0514 1.42489.10252 1.37394.13301-.044.21958-.56485.24821-1.4933.0492-1.59663.23926-2.10656.9153-2.45615.67786-.35054 1.28809-.29359 1.74446.16278.38372.38372.40135.50127.38101 2.54-.0165 1.65739-.072 2.13766-.24702 2.13766-.12413 0-.57499-.35941-1.00192-.79869-.379618-.37565-.843272-.66983-1.17286-.30127-.57289.71847-.28539 1.67135.90025 2.98371 1.10256 1.22039 2.0621 1.41987 3.51457.73063l.5272-.25017-.22647-2.55878c-.20618-2.32943-.20165-2.58621.0505-2.86486.25709-.28409.24448-.50469-.17536-3.06833-.24879-1.51923-.49003-2.89559-.53608-3.05857-.11526-.40792-.68194-.37861-2.5964.13428-2.23873.59976-4.45851 1.61394-6.48688 2.96375-1.9374 1.28927-4.07873 3.15448-3.95321 3.44346.0453.10423.58268 1.47263 1.19425 3.04089.61156 1.56825 1.15561 2.92204 1.209 3.00842.11229.18169.1723.15124 1.46286-.74205zm28.00347-2.41424 1.20864-3.12022-1.11899-.98777c-2.33986-2.06548-4.57052-3.45396-7.21498-4.49099-1.61514-.63338-4.12651-1.24158-4.5135-1.09308-.15397.0591-.39623 1.06246-.72448 3.00063-.45179 2.66758-.47154 2.9499-.23538 3.36523.22586.39722.23144.75728.045 2.90807-.11702 1.35008-.18168 2.505-.14368 2.56648.10851.17557 1.60939.65147 2.05459.65147.88422 0 2.0846-1.01813 2.73717-2.32159.45716-.91314.524245-1.21313.03635-1.78036l-.363239-.29952c-.258959-.21354-.833636.56477-.833636.56477-.98441 1.06796-1.24576 1.04518-1.15106-.1003.0404-.48895.004-1.29803-.0806-1.79796-.34733-2.04887 1.16861-3.16075 2.49753-1.83183.54764.54764.56084.5948.54618 1.95165-.008.76475.062 1.4675.15622 1.56168.11543.11543.14622-.26091.0945-1.15471-.0642-1.10988-.0149-1.46983.303035-2.2088.20888-.48555.64369-1.11454.96623-1.39774.69403-.60936.90064-.51467 1.32998.60954.47334 1.23942.25322 2.59004-.737 4.52217-.0358.0699.007.127.0952.127.17443 0 .94797-1.66368 1.12052-2.40992.16768-.72523 1.36381-1.1967 2.21113-.87156.33885.13003.76958.93479.76958 1.43786 0 .20599-.18967.69819-.42149 1.09376-.23183.39558-.53546 1.15676-.67475 1.69151-.13928.53476-.29772 1.01676-.35208 1.07112-.17087.17087-.75076-.71192-.96065-1.46243-.22586-.8076-.29946-.83938-.9939-.42916-.61716.36456-.61827.66942-.005 1.51534.6785.93664 2.81839 2.5659 3.05687 2.32742.0481-.0481.63141-1.49163 1.29616-3.20776zm-14.08073.10332 1.16351-1.1725-1.04106-1.15348-1.04105-1.15348v-3.34669-3.34668h.508c.46883 0 .508-.0463.508-.59979v-.59979l-1.31234.0495-1.31233.0495-.0531.55034c-.0494.51267-.0176.55033.46566.55033h.51873v3.41022 3.41022l-.94414 1.07539-.94415 1.0754 1.07115 1.18541c.58913.65197 1.11129 1.18615 1.16035 1.18705.0491.00085.61279-.52598 1.25273-1.17086zm-9.98279.0963c.20404-.1492.27371-.33419.19909-.52864-.09-.23451-.23131-.27583-.65409-.19127-.62298.12459-.86934.42007-.61039.73208.23375.28165.67039.27667 1.06539-.0122zm18.49501-.049c.12869-.33535-.35867-.73751-.89374-.73751-.31057 0-.57842.28338-.57842.61197 0 .11479.72015.38107 1.06365.39329.16591.006.34974-.11458.40851-.26775zm-29.000917-3.88228c.40315-.40314.32951-1.03921-.15724-1.35814-.39215-.25695-.45451-.25695-.84666 0-.71485.46839-.4136 1.62424.42333 1.62424.17296 0 .43422-.11974.58057-.2661zm39.580427-.0142c.73294-.66331-.002-1.77754-.93748-1.42178-.36389.13835-.44619.27818-.44619.75808 0 .86779.75695 1.23087 1.38367.6637zm-37.7339-.36762.45846-.47853-.59611-.18296-.596117-.18294v.66148c0 .78748.12479.81859.733767.18295zm35.45738-.20806c0-.56564-.0481-.66666-.27324-.57346-.15028.0622-.41118.15268-.57978.20101-.27518.0789-.25895.13754.15868.57346.25587.26707.51677.48558.57978.48558.063 0 .11456-.30897.11456-.68659zm-34.36616-1.43957c.44692-.31304.50521-1.10734.11025-1.50231-.31414-.31414-1.27287-.35273-1.5627-.0629-.293467.29346-.249607 1.15818.077 1.51913.34315.37917.87443.39697 1.37541.0461zm33.90435-.0751c.69989-.69989.26562-1.69333-.74023-1.69333-.68004 0-.95311.26058-.95311.90953 0 1.00852 1.00392 1.47321 1.69334.7838zm-31.66534-1.03276c0-.0622-.13335-.15141-.29633-.19828-.16298-.0469-.41466-.13433-.55929-.19439-.21523-.0894-.25031-.00091-.19329.48751l.0697.59669.48963-.28923c.26929-.15907.48962-.34011.48962-.4023zm29.12534.12669v-.5674l-.58775.18397-.58775.18396.46075.37735c.62116.50872.71475.48543.71475-.17788zm-27.95229-1.57207c.46088-.58592.44308-1.00109-.0647-1.50886-.56561-.56561-1.31462-.55271-1.7734.0305-.44416.56466-.44606 1.08122-.006 1.5539.50056.53729 1.39039.50081 1.84378-.0756zm27.47329.16593c.45679-.41339.41758-1.48763-.0667-1.82682-1.20668-.84519-2.68754.73651-1.65566 1.7684.41408.41407 1.29627.444 1.72234.0584zm-25.66226-.6011.63276-.37334-.4291-.17699c-.236-.0974-.54274-.27182-.68163-.38772-.21792-.18184-.25032-.1064-.23632.55029.009.41856.0309.76104.0489.76106s.31739-.16796.66542-.3733zm22.84289-.36065.004-.73292-.5963.34072c-.32796.18739-.61854.35554-.64573.37366-.0585.039 1.02665.74577 1.1501.74914.0466.001.0863-.3275.0883-.7306zm-20.96955-1.32752c.51699-.48569.52827-1.41218.0237-1.94924-.79618-.8475-2.34115-.21216-2.34115.96275 0 1.1561 1.47054 1.78209 2.31742.98649zm20.29628-.0475c1.13184-1.13184-.33882-2.89871-1.77361-2.13083-.51455.27538-.76676 1.10428-.51842 1.70382.25798.62284.58525.83074 1.31836.8375.37154.003.69694-.13376.97367-.41049zm-17.93536-.31159c.0215-.0215-.22224-.28771-.54163-.59161l-.58071-.55254v.58317c0 .32075-.0483.70898-.10728.86275-.0993.25879-.0591.25942.54164.008.3569-.14912.6665-.28871.68798-.3102zm14.77846-.0941c-.10307-.29567-.13684-.66997-.0751-.83179.0641-.1678-.16415-.0396-.53116.29845-.35393.32597-.66817.60378-.6983.61736-.0301.0136.27382.1365.67546.27315.40164.13666.74965.23315.77335.21444.0237-.0187-.0412-.27594-.1443-.57161zm-12.62189-1.1491c1.0008-1.0008.33776-2.60157-1.07757-2.60157-.93959 0-1.524.5726-1.524 1.49321 0 .90097.64087 1.55479 1.524 1.55479.45615 0 .75492-.12378 1.07757-.44643zm11.46612-.0485c.63102-.63101.65038-1.32635.0566-2.03203-.35351-.42011-.56811-.52099-1.10837-.52099-.92911 0-1.50125.58081-1.50125 1.524 0 1.44233 1.52504 2.05701 2.55303 1.02902zm-6.2249-.54868c.84876-.45205 1.03339-1.31466.44225-2.06617-.47137-.59925-1.36006-.61322-1.94274-.0305-.55922.55921-.53149 1.1879.0793 1.79872.53702.53702.84937.60251 1.42115.29798zm2.04944-3.89363c-.15205-.29404-.61121-.89249-1.02035-1.32989s-.74388-.93006-.74388-1.0948.4572-.78828 1.016-1.38564c1.74209-1.8623 1.03163-2.01843-.84092-.1848-.9054.88659-1.39236 1.00219-1.7732.42095-.31313-.47789-1.93417-1.72869-2.06754-1.59531-.15271.1527.52381 1.14622 1.28433 1.88615.37839.36815.68799.77656.68799.90759 0 .13102-.38246.6567-.84991 1.16816-.9638 1.05455-1.29561 1.57288-1.00689 1.57288.25946 0 1.51701-.8878 2.01332-1.42134.48793-.52455 1.03672-.56937 1.32473-.1082.24096.38585 1.85961 1.69887 2.09431 1.69887.0872 0 .0341-.24058-.11799-.53462z" fill="#efca29"/><path d="m59.851994 175.07093v-7.62h31.834669 31.834677v7.62 7.62h-31.834677-31.834669zm16.946129 5.48601c1.35121-.42599 2.35787-1.82834 2.35787-3.28467 0-1.63982-.92794-2.5905-3.21261-3.29134-1.73653-.53269-2.13813-.77216-1.98112-1.18132.17542-.45714 1.49977-.30548 1.72022.19699.15505.35341.27461.381 1.651.381 1.4749 0 1.48385-.003 1.48385-.42877 0-.70657-.415-1.48136-1.14747-2.14229-.77747-.70156-1.58838-.98305-2.83187-.98305-2.40573 0-3.97028 1.32165-3.97655 3.35919-.006 1.83673.7633 2.63687 3.33286 3.46805 1.50859.48799 1.65969.57504 1.65969.95613 0 .89404-1.57113.8953-2.03327.002-.25899-.50091-.2748-.50562-1.69641-.50562h-1.43498v.51475c0 .28311.14498.79746.32218 1.143.99141 1.93322 3.1887 2.61529 5.78661 1.79626zm32.903457-.22743c.50685-.24537.97121-.64246 1.25793-1.07573.39502-.59691.45449-.85867.45449-2.00036 0-1.22784-.0332-1.34848-.508-1.84821-.62204-.65464-1.38878-1.06049-2.71443-1.43678-1.25778-.35703-1.7729-.67411-1.7729-1.09132 0-.64475 1.57694-.64098 1.78173.004.0923.29091.27067.3269 1.61957.3269h1.51582l-.11192-.46566c-.361-1.50199-1.32222-2.42281-2.89701-2.77523-1.14804-.25692-2.70311.002-3.6067.59955-1.7965 1.18887-1.75993 4.20065.0638 5.25357.38687.22337 1.27491.57279 1.97341.7765 1.18521.34566 1.86266.71958 1.86266 1.02809 0 .3356-.58897.66318-1.19236.66318-.53717 0-.73014-.0947-1.03575-.508-.36491-.49357-.41554-.508-1.78307-.508-1.33418 0-1.40748.0193-1.40748.36987 0 1.08162 1.16245 2.45698 2.49732 2.9547.95078.3545 3.00126.21757 4.00292-.26733zm-19.877587-1.70258v-2.032h1.34929 1.3493l.0477 1.98967.0477 1.98967h1.524 1.524v-5.16467-5.16467l-1.56633-.0487-1.56633-.0487v1.69969 1.69968h-1.35467-1.35467v-1.69333-1.69333h-1.524-1.524v5.13644c0 2.82505.0508 5.18725.11289 5.24933.0621.0621.74789.11289 1.524.11289h1.41111zm-5.41866-3.302v-1.60866h-1.524-1.524v1.60866 1.60867h1.524 1.524zm16.728027.0423-.0487-1.56634h-1.524005-1.524002l-.0487 1.56634-.0487 1.56633h1.621382 1.621375z" fill="#95bee4"/></g></svg>